<svg xmlns="http://www.w3.org/2000/svg" viewBox="0 0 512 512" fill="none">
  <!-- Rounded Background -->
  <rect width="512" height="512" rx="100" fill="#1B3B6F" />
  
  <!-- Icon Group Scaled -->
  <g transform="translate(100, 100) scale(1.9)">
    <path fill="white" d="M120 180 C120 220 80 220 40 200 C10 180 0 140 0 100 C0 44.8 44.8 0 100 0 C110 0 120 2 130 5 L125 15 C118 12 110 10 100 10 C50.3 10 10 50.3 10 100 C10 135 20 165 45 185 C75 205 110 200 120 170 Z" />
    <path fill="white" d="M15 65 L45 45 L75 65 L45 85 Z" />
    <path fill="white" d="M75 65 L75 75 C75 75 45 95 15 75 L15 65" opacity="0.8" />
    <path fill="#6A2D91" d="M65 110 C65 102 72 95 80 95 C88 95 95 102 95 110 C95 118 88 125 80 125 C72 125 65 118 65 110 Z" />
    <path fill="#6A2D91" d="M50 170 L70 135 C70 135 80 130 90 135 L110 170 L95 175 L80 150 L65 175 Z" />
    <g transform="translate(100, 130)">
      <path fill="#D4AF37" d="M0 0 A50 50 0 0 1 50 50 L0 50 Z" opacity="0.9" />
    </g>
    <path fill="#D4AF37" d="M140 50 L145 40 L150 50 L160 55 L150 60 L145 70 L140 60 L130 55 Z" />
    <path fill="#D4AF37" d="M20 30 L23 25 L26 30 L31 33 L26 36 L23 41 L20 36 L15 33 Z" />
  </g>
</svg>
